<?xml version="1.0" encoding="UTF-8"?>
<svg id="Layer_2" data-name="Layer 2" xmlns="http://www.w3.org/2000/svg" viewBox="0 0 836.42 828.29">
  <defs>
    <style>
      .cls-1 {
        fill: none;
      }

      .cls-1, .cls-2, .cls-3 {
        stroke-miterlimit: 10;
      }

      .cls-1, .cls-2, .cls-3, .cls-4 {
        stroke-width: 20px;
      }

      .cls-1, .cls-3, .cls-4 {
        stroke: #fff;
      }

      .cls-2 {
        stroke: #6f3ff5;
      }

      .cls-2, .cls-3 {
        fill: #6f3ff5;
      }

      .cls-4 {
        fill: #fff;
        stroke-linecap: round;
        stroke-linejoin: round;
      }
    </style>
  </defs>
  <g id="Layer_1-2" data-name="Layer 1">
    <path class="cls-3" d="M826.42,414.15c-9.16,538.9-807.33,538.82-816.42-.02,9.16-538.88,807.33-538.8,816.42.02Z"/>
    <path class="cls-1" d="M45.6,580.45c457.48,276.31,488.36-300.6,769.37-261.79"/>
    <path class="cls-1" d="M11.18,441.21c1.09,19.39,77.76,145.38,199.22,148.38"/>
    <path class="cls-1" d="M40.62,570.45s256.29,132.18,477.45-224.79c138.15-222.99,250.88-141.04,250.88-141.04"/>
    <path class="cls-1" d="M45.6,580.45c443.24,416.91,558.34-140.08,780.82-107.81"/>
    <path class="cls-1" d="M17.62,336.15c-6.34,68.45,169.17,256.78,297.33,216.44"/>
    <path class="cls-4" d="M310.63,350.77c-36.81,52.27-90.3,51.79-126.45-.01,36.81-52.26,90.3-51.78,126.45.01Z"/>
    <ellipse class="cls-2" cx="247.33" cy="351.2" rx="28.87" ry="29"/>
  </g>
</svg>

